<svg width="18" height="19" viewBox="0 0 18 19" fill="none" xmlns="http://www.w3.org/2000/svg">
<path d="M4.5 12.5H3.75C3.55109 12.5 3.36032 12.421 3.21967 12.2803C3.07902 12.1397 3 11.9489 3 11.75V4.25C3 4.05109 3.07902 3.86032 3.21967 3.71967C3.36032 3.57902 3.55109 3.5 3.75 3.5H11.25C11.4489 3.5 11.6397 3.57902 11.7803 3.71967C11.921 3.86032 12 4.05109 12 4.25V5M6.75 15.5H14.25C14.4489 15.5 14.6397 15.421 14.7803 15.2803C14.921 15.1397 15 14.9489 15 14.75V7.25C15 7.05109 14.921 6.86032 14.7803 6.71967C14.6397 6.57902 14.4489 6.5 14.25 6.5H6.75C6.55109 6.5 6.36032 6.57902 6.21967 6.71967C6.07902 6.86032 6 7.05109 6 7.25V14.75C6 14.9489 6.07902 15.1397 6.21967 15.2803C6.36032 15.421 6.55109 15.5 6.75 15.5Z" stroke="white" stroke-width="2" stroke-linejoin="round"/>
</svg>
